{"accessors" : [{"bufferView" : 0, "byteOffset" : 0, "componentType" : 5123, "count" : 4842, "type" : "SCALAR", "max" : [4841], "min" : [0]}, {"bufferView" : 1, "byteOffset" : 0, "componentType" : 5126, "count" : 4842, "type" : "VEC3", "max" : [4.9744181632995605, 1.9374862909317017, 7.044256687164307], "min" : [-4.9744181632995605, -0.41253164410591125, -4.121907711029053], "name" : "POSITION"}, {"bufferView" : 1, "byteOffset" : 12, "componentType" : 5126, "count" : 4842, "type" : "VEC3", "max" : [1.0000044107437134, 1.0000044107437134, 1.0000044107437134], "min" : [-1.0000044107437134, -0.9999460577964783, -1.0000044107437134], "name" : "NORMAL"}, {"bufferView" : 1, "byteOffset" : 24, "componentType" : 5126, "count" : 4842, "type" : "VEC2", "max" : [0.07834302634000778, 0.3595927357673645], "min" : [0.015657734125852585, 0.3586205840110779], "name" : "TEXCOORD_0"}, {"bufferView" : 1, "byteOffset" : 32, "componentType" : 5126, "count" : 4842, "type" : "VEC2", "max" : [0, 1], "min" : [0, 1], "name" : "TEXCOORD_1"}], "asset" : {"generator" : "Aspose.3D 24.9.1", "version" : "2.0"}, "buffers" : [{"uri" : "data:application/octet-stream;base64,", "byteLength" : 203372}], "bufferViews" : [{"buffer" : 0, "byteOffset" : 0, "byteLength" : 9684, "target" : 34963}, {"buffer" : 0, "byteOffset" : 9688, "byteLength" : 193680, "byteStride" : 40, "target" : 34962}], "images" : [{"uri" : "data:image/png;base64,"}], "materials" : [{"name" : "Atlas", "pbrMetallicRoughness" : {"baseColorFactor" : [1, 1, 1, 1], "baseColorTexture" : {"index" : 0, "texCoord" : 0}, "metallicFactor" : 1, "roughnessFactor" : 1}, "emissiveFactor" : [0, 0, 0], "alphaMode" : "OPAQUE", "doubleSided" : false}], "meshes" : [{"primitives" : [{"attributes" : {"POSITION" : 1, "NORMAL" : 2, "TEXCOORD_0" : 3, "TEXCOORD_1" : 4}, "indices" : 0, "material" : 0, "mode" : 4}], "name" : "Spaceship_RaeTheRedPanda"}], "nodes" : [{"matrix" : [1, 0, 0, 0, 0, 0.999999999999999, 4.371138828673791E-08, 0, 0, -4.371138828673791E-08, 0.999999999999999, 0, 0, 0, 0, 1], "mesh" : 0, "name" : "Spaceship_RaeTheRedPanda"}], "samplers" : [{"magFilter" : 9729, "minFilter" : 9729, "wrapS" : 10497, "wrapT" : 10497}], "scene" : 0, "scenes" : [{"nodes" : [0]}], "textures" : [{"sampler" : 0, "source" : 0, "name" : "base_color_texture"}]}