{
    "asset": {
        "version": "2.0",
        "generator": "Open Asset Import Library (assimp v5.4.0)"
    },
    "extensionsUsed": [
        "KHR_materials_volume",
        "FB_ngon_encoding"
    ],
    "accessors": [
        {
            "bufferView": 0,
            "byteOffset": 0,
            "componentType": 5126,
            "count": 4013,
            "type": "VEC3",
            "max": [
                0.058105237782001495,
                0.018503308296203613,
                0.019806532189249992
            ],
            "min": [
                -0.058105237782001495,
                -0.012060754932463169,
                -0.021281098946928978
            ]
        },
        {
            "bufferView": 1,
            "byteOffset": 0,
            "componentType": 5126,
            "count": 4013,
            "type": "VEC3",
            "max": [
                1.0,
                1.0,
                1.0
            ],
            "min": [
                -1.0,
                -1.0,
                -1.0
            ]
        },
        {
            "bufferView": 2,
            "byteOffset": 0,
            "componentType": 5126,
            "count": 4013,
            "type": "VEC2",
            "max": [
                0.10999149829149246,
                0.3295149803161621
            ],
            "min": [
                0.013181909918785095,
                0.327003538608551
            ]
        },
        {
            "bufferView": 3,
            "byteOffset": 0,
            "componentType": 5125,
            "count": 10128,
            "type": "SCALAR",
            "max": [
                4012
            ],
            "min": [
                0
            ]
        }
    ],
    "buffers": [
        {
            "byteLength": 168928,
            "uri": "Spaceship3_0.bin"
        }
    ],
    "bufferViews": [
        {
            "buffer": 0,
            "byteOffset": 0,
            "byteLength": 48156,
            "target": 34962
        },
        {
            "buffer": 0,
            "byteOffset": 48156,
            "byteLength": 48156,
            "target": 34962
        },
        {
            "buffer": 0,
            "byteOffset": 96312,
            "byteLength": 32104,
            "target": 34962
        },
        {
            "buffer": 0,
            "byteOffset": 128416,
            "byteLength": 40512,
            "target": 34963
        }
    ],
    "images": [
        {
            "uri": "textures/image_0.png"
        }
    ],
    "materials": [
        {
            "name": "31",
            "pbrMetallicRoughness": {
                "baseColorTexture": {
                    "index": 0
                },
                "metallicFactor": 0.0
            },
            "alphaCutoff": 0.10000000149011612,
            "alphaMode": "MASK",
            "doubleSided": true
        }
    ],
    "meshes": [
        {
            "name": "meshes[0]",
            "primitives": [
                {
                    "mode": 4,
                    "material": 0,
                    "indices": 3,
                    "attributes": {
                        "POSITION": 0,
                        "NORMAL": 1,
                        "TEXCOORD_0": 2
                    }
                }
            ]
        }
    ],
    "nodes": [
        {
            "name": "Spaceship3",
            "children": [
                1
            ]
        },
        {
            "name": "root",
            "children": [
                2
            ],
            "extras": {
                "name": "root"
            }
        },
        {
            "name": "node_id5",
            "matrix": [
                -4.405800819396973,
                0.0,
                0.0,
                0.0,
                0.0,
                4.40579891204834,
                -1.925835704241763e-7,
                0.0,
                0.0,
                -1.9258365568930458e-7,
                -4.405800819396973,
                0.0,
                4.6065540004747163e-7,
                -0.014192301779985428,
                0.2527516782283783,
                1.0
            ],
            "mesh": 0,
            "extras": {
                "name": "node_id5"
            }
        }
    ],
    "samplers": [
        {
            "magFilter": 9729,
            "minFilter": 9987
        }
    ],
    "scenes": [
        {
            "nodes": [
                0
            ]
        }
    ],
    "textures": [
        {
            "source": 0,
            "sampler": 0
        }
    ],
    "scene": 0
}